REM DIRINDEX 1\2,1\3,1\4,1\5
REM DIRNAME cjc044,folder01,folder02,folder03,folder04
TITLE ""
FILE "1800_179.mp3" MP3
  TRACK 01 AUDIO
    TITLE "2:cjc044_6171"
    INDEX 01 00:00:00
  TRACK 02 AUDIO
    TITLE "0:"
    INDEX 01 00:00:74
  TRACK 03 AUDIO
    TITLE "3:cjc044_6172"
    INDEX 01 00:01:46
  TRACK 04 AUDIO
    TITLE "0:"
    INDEX 01 00:02:65
  TRACK 05 AUDIO
    TITLE "4:cjc044_6173"
    INDEX 01 00:03:39
  TRACK 06 AUDIO
    TITLE "0:"
    INDEX 01 00:04:50
  TRACK 07 AUDIO
    TITLE "2:cjc044_6174"
    INDEX 01 00:06:24
  TRACK 08 AUDIO
    TITLE "0:"
    INDEX 01 00:07:60
  TRACK 09 AUDIO
    TITLE "3:cjc044_6175"
    INDEX 01 00:08:34
  TRACK 10 AUDIO
    TITLE "0:"
    INDEX 01 00:09:57
  TRACK 11 AUDIO
    TITLE "4:cjc044_6176"
    INDEX 01 00:10:27
  TRACK 12 AUDIO
    TITLE "0:"
    INDEX 01 00:11:58
  TRACK 13 AUDIO
    TITLE "2:cjc044_6177"
    INDEX 01 00:13:28
  TRACK 14 AUDIO
    TITLE "0:"
    INDEX 01 00:14:47
  TRACK 15 AUDIO
    TITLE "3:cjc044_6178"
    INDEX 01 00:15:21
  TRACK 16 AUDIO
    TITLE "0:"
    INDEX 01 00:16:53
  TRACK 17 AUDIO
    TITLE "4:cjc044_6179"
    INDEX 01 00:17:21
  TRACK 18 AUDIO
    TITLE "0:"
    INDEX 01 00:18:42
  TRACK 19 AUDIO
    TITLE "2:cjc044_6180"
    INDEX 01 00:20:16
  TRACK 20 AUDIO
    TITLE "0:"
    INDEX 01 00:21:53
  TRACK 21 AUDIO
    TITLE "3:cjc044_6181"
    INDEX 01 00:22:27
  TRACK 22 AUDIO
    TITLE "0:"
    INDEX 01 00:23:28
  TRACK 23 AUDIO
    TITLE "4:cjc044_6182"
    INDEX 01 00:24:02
  TRACK 24 AUDIO
    TITLE "0:"
    INDEX 01 00:25:41
  TRACK 25 AUDIO
    TITLE "2:cjc044_6183"
    INDEX 01 00:27:14
  TRACK 26 AUDIO
    TITLE "0:"
    INDEX 01 00:28:35
  TRACK 27 AUDIO
    TITLE "3:cjc044_6184"
    INDEX 01 00:29:07
  TRACK 28 AUDIO
    TITLE "0:"
    INDEX 01 00:29:74
  TRACK 29 AUDIO
    TITLE "4:cjc044_6185"
    INDEX 01 00:30:50
  TRACK 30 AUDIO
    TITLE "0:"
    INDEX 01 00:31:71
  TRACK 31 AUDIO
    TITLE "2:cjc044_6186"
    INDEX 01 00:33:44
  TRACK 32 AUDIO
    TITLE "0:"
    INDEX 01 00:34:71
  TRACK 33 AUDIO
    TITLE "3:cjc044_6187"
    INDEX 01 00:35:43
  TRACK 34 AUDIO
    TITLE "0:"
    INDEX 01 00:36:29
  TRACK 35 AUDIO
    TITLE "4:cjc044_6188"
    INDEX 01 00:37:07
  TRACK 36 AUDIO
    TITLE "0:"
    INDEX 01 00:38:33
  TRACK 37 AUDIO
    TITLE "2:cjc044_6189"
    INDEX 01 00:40:09
  TRACK 38 AUDIO
    TITLE "0:"
    INDEX 01 00:41:12
  TRACK 39 AUDIO
    TITLE "3:cjc044_6190"
    INDEX 01 00:41:65
  TRACK 40 AUDIO
    TITLE "0:"
    INDEX 01 00:42:59
  TRACK 41 AUDIO
    TITLE "4:cjc044_6191"
    INDEX 01 00:43:35
  TRACK 42 AUDIO
    TITLE "0:"
    INDEX 01 00:44:34
  TRACK 43 AUDIO
    TITLE "2:cjc044_6192"
    INDEX 01 00:46:11
  TRACK 44 AUDIO
    TITLE "0:"
    INDEX 01 00:47:38
  TRACK 45 AUDIO
    TITLE "3:cjc044_6193"
    INDEX 01 00:48:10
  TRACK 46 AUDIO
    TITLE "0:"
    INDEX 01 00:49:08
  TRACK 47 AUDIO
    TITLE "4:cjc044_6194"
    INDEX 01 00:49:53
  TRACK 48 AUDIO
    TITLE "0:"
    INDEX 01 00:51:07
  TRACK 49 AUDIO
    TITLE "2:cjc044_6195"
    INDEX 01 00:52:57
  TRACK 50 AUDIO
    TITLE "0:"
    INDEX 01 00:54:05
  TRACK 51 AUDIO
    TITLE "3:cjc044_6196"
    INDEX 01 00:54:54
  TRACK 52 AUDIO
    TITLE "0:"
    INDEX 01 00:56:02
  TRACK 53 AUDIO
    TITLE "4:cjc044_6197"
    INDEX 01 00:56:51
  TRACK 54 AUDIO
    TITLE "0:"
    INDEX 01 00:57:74
  TRACK 55 AUDIO
    TITLE "2:cjc044_6198"
    INDEX 01 00:59:47
  TRACK 56 AUDIO
    TITLE "0:"
    INDEX 01 01:01:05
  TRACK 57 AUDIO
    TITLE "3:cjc044_6199"
    INDEX 01 01:01:54
  TRACK 58 AUDIO
    TITLE "0:"
    INDEX 01 01:02:63
  TRACK 59 AUDIO
    TITLE "4:cjc044_6200"
    INDEX 01 01:03:35
  TRACK 60 AUDIO
    TITLE "0:"
    INDEX 01 01:04:68
  TRACK 61 AUDIO
    TITLE "2:cjc044_6201"
    INDEX 01 01:06:43
  TRACK 62 AUDIO
    TITLE "0:"
    INDEX 01 01:07:68
  TRACK 63 AUDIO
    TITLE "3:cjc044_6202"
    INDEX 01 01:08:40
  TRACK 64 AUDIO
    TITLE "0:"
    INDEX 01 01:09:52
  TRACK 65 AUDIO
    TITLE "4:cjc044_6203"
    INDEX 01 01:10:30
  TRACK 66 AUDIO
    TITLE "0:"
    INDEX 01 01:11:54
  TRACK 67 AUDIO
    TITLE "2:cjc044_6204"
    INDEX 01 01:13:28
  TRACK 68 AUDIO
    TITLE "0:"
    INDEX 01 01:14:47
  TRACK 69 AUDIO
    TITLE "3:cjc044_6205"
    INDEX 01 01:15:19
  TRACK 70 AUDIO
    TITLE "0:"
    INDEX 01 01:16:22
  TRACK 71 AUDIO
    TITLE "4:cjc044_6206"
    INDEX 01 01:16:71
  TRACK 72 AUDIO
    TITLE "0:"
    INDEX 01 01:18:13
  TRACK 73 AUDIO
    TITLE "2:cjc044_6207"
    INDEX 01 01:19:64
  TRACK 74 AUDIO
    TITLE "0:"
    INDEX 01 01:21:39
  TRACK 75 AUDIO
    TITLE "3:cjc044_6208"
    INDEX 01 01:22:09
  TRACK 76 AUDIO
    TITLE "0:"
    INDEX 01 01:23:15
  TRACK 77 AUDIO
    TITLE "4:cjc044_6209"
    INDEX 01 01:23:60
  TRACK 78 AUDIO
    TITLE "0:"
    INDEX 01 01:25:37
  TRACK 79 AUDIO
    TITLE "2:cjc044_6210"
    INDEX 01 01:27:16
  TRACK 80 AUDIO
    TITLE "0:"
    INDEX 01 01:28:45
  TRACK 81 AUDIO
    TITLE "3:cjc044_6211"
    INDEX 01 01:29:19
  TRACK 82 AUDIO
    TITLE "0:"
    INDEX 01 01:30:22
  TRACK 83 AUDIO
    TITLE "4:cjc044_6212"
    INDEX 01 01:30:69
  TRACK 84 AUDIO
    TITLE "0:"
    INDEX 01 01:32:27
  TRACK 85 AUDIO
    TITLE "2:cjc044_6213"
    INDEX 01 01:34:03
  TRACK 86 AUDIO
    TITLE "0:"
    INDEX 01 01:35:08
  TRACK 87 AUDIO
    TITLE "3:cjc044_6214"
    INDEX 01 01:35:61
  TRACK 88 AUDIO
    TITLE "0:"
    INDEX 01 01:36:74
  TRACK 89 AUDIO
    TITLE "4:cjc044_6215"
    INDEX 01 01:37:46
  TRACK 90 AUDIO
    TITLE "0:"
    INDEX 01 01:38:55
  TRACK 91 AUDIO
    TITLE "2:cjc044_6216"
    INDEX 01 01:40:36
  TRACK 92 AUDIO
    TITLE "0:"
    INDEX 01 01:41:52
  TRACK 93 AUDIO
    TITLE "3:cjc044_6217"
    INDEX 01 01:42:28
  TRACK 94 AUDIO
    TITLE "0:"
    INDEX 01 01:43:23
  TRACK 95 AUDIO
    TITLE "4:cjc044_6218"
    INDEX 01 01:43:68
  TRACK 96 AUDIO
    TITLE "0:"
    INDEX 01 01:45:14
  TRACK 97 AUDIO
    TITLE "2:cjc044_6219"
    INDEX 01 01:46:65
  TRACK 98 AUDIO
    TITLE "0:"
    INDEX 01 01:48:18
  TRACK 99 AUDIO
    TITLE "3:cjc044_6220"
    INDEX 01 01:48:65
  TRACK 100 AUDIO
    TITLE "0:"
    INDEX 01 01:49:53
  TRACK 101 AUDIO
    TITLE "4:cjc044_6221"
    INDEX 01 01:50:25
  TRACK 102 AUDIO
    TITLE "0:"
    INDEX 01 01:51:52
  TRACK 103 AUDIO
    TITLE "2:cjc044_6222"
    INDEX 01 01:53:29
  TRACK 104 AUDIO
    TITLE "0:"
    INDEX 01 01:54:46
  TRACK 105 AUDIO
    TITLE "3:cjc044_6223"
    INDEX 01 01:55:20
  TRACK 106 AUDIO
    TITLE "0:"
    INDEX 01 01:56:10
  TRACK 107 AUDIO
    TITLE "4:cjc044_6224"
    INDEX 01 01:56:59
  TRACK 108 AUDIO
    TITLE "0:"
    INDEX 01 01:58:03
